# xmcd
#
# Track frame offsets:
#	150
#	7542
#	11293
#	17148
#	20298
#	24407
#	31335
#	36528
#	39269
#	43153
#	47291
#	52458
#	55680
#	59115
#	68973
#	72924
#	80265
#	84437
#
# Disc length: 1266 seconds
#
# Revision: 1
# Processed by: cddbd v1.5.2PL0 Copyright (c) Steve Scherf et al.
# Submitted via: audiograbber 1.83.01
#
DISCID=dd04f012
DTITLE=Terveet K‰det - Lapin Helvetti
DYEAR=2015
DGENRE=Punk
TTITLE0=Polku P‰‰ttyy
TTITLE1=Verinen Jeesus
TTITLE2=El‰m‰lle Vieraita Piirteit‰
TTITLE3=Ruumiiseen Sidottu
TTITLE4=Luonto Kutsuu
TTITLE5=Brutaali
TTITLE6=J‰‰t‰v‰n Kylm‰
TTITLE7=Aivoleikkuri
TTITLE8=Tappava Usko
TTITLE9=Lapin Helvetti
TTITLE10=Pime‰mpi Puoli
TTITLE11=El‰in
TTITLE12=Kuoletus
TTITLE13=Sankarin Merkki
TTITLE14=Yhden Miehen Sota
TTITLE15=Min‰ Olen
TTITLE16=Ruuvikierre
TTITLE17=Kalpea Mies
EXTD=
EXTT0=
EXTT1=
EXTT2=
EXTT3=
EXTT4=
EXTT5=
EXTT6=
EXTT7=
EXTT8=
EXTT9=
EXTT10=
EXTT11=
EXTT12=
EXTT13=
EXTT14=
EXTT15=
EXTT16=
EXTT17=
PLAYORDER=
